<svg data-v-423bf9ae="" xmlns="http://www.w3.org/2000/svg" viewBox="0 0 378 104" class="iconLeft"><!----><!----><!----><g data-v-423bf9ae="" id="c335787a-da01-4015-8b57-ce10a36d46ef" fill="#000000" transform="matrix(4.501125307082416,0,0,4.501125307082416,118.93344084067644,6.873127579385049)"><path d="M0.43 12.10C1.19 13.08 2.56 13.85 4.49 13.85C6.69 13.85 8.37 12.85 8.37 10.89C8.37 9.52 7.55 8.89 6.62 8.53C5.54 8.11 4.28 8.04 3.39 7.69C2.90 7.49 2.46 7.20 2.46 6.58C2.46 5.77 3.25 5.24 4.51 5.24C5.74 5.24 6.58 5.74 7.14 6.37L8.13 5.49C7.56 4.75 6.43 3.95 4.56 3.95C2.35 3.95 1.09 5.07 1.09 6.64C1.09 7.76 1.72 8.37 2.74 8.78C3.79 9.20 5.03 9.30 5.94 9.63C6.55 9.86 6.99 10.18 6.99 10.91C6.99 11.98 6.02 12.59 4.58 12.59C3.19 12.59 2.17 12.03 1.50 11.23ZM9.95 3.84L9.95 13.73L11.28 13.73L11.28 8.71C11.69 7.73 12.35 7.41 13.13 7.41C14.11 7.41 14.76 7.90 14.76 9.18L14.76 13.73L16.09 13.73L16.09 9.04C16.09 6.97 15.05 6.15 13.55 6.15C12.59 6.15 11.83 6.50 11.28 7.15L11.28 3.39ZM24.12 10.49C24.14 10.33 24.15 10.18 24.15 10.00C24.15 7.52 22.83 6.15 21.01 6.15C19.19 6.15 17.89 7.52 17.89 10.00C17.89 12.60 19.33 13.92 21.10 13.92C22.43 13.92 23.25 13.17 23.66 12.61L22.78 11.84C22.44 12.33 21.88 12.71 21.15 12.71C20.17 12.71 19.29 12.03 19.14 10.49ZM21.03 7.35C22.02 7.35 22.75 8.08 22.90 9.49L19.14 9.49C19.28 8.12 20.01 7.35 21.03 7.35ZM26.01 3.84L26.01 13.73L27.34 13.73L27.34 3.39ZM32.37 3.42C32.17 3.36 31.84 3.32 31.35 3.32C30.31 3.32 29.55 3.67 29.55 5.04L29.55 6.33L28.71 6.33L28.71 7.42L29.55 7.42L29.55 13.73L30.88 13.73L30.88 7.42L32.34 7.42L32.34 6.33L30.88 6.33L30.88 5.25C30.88 4.62 31.23 4.44 31.70 4.44C31.98 4.44 32.24 4.48 32.37 4.51ZM36.53 4.05L32.84 13.73L34.36 13.73L35.11 11.65L39.49 11.65L40.26 13.73L41.78 13.73L38.05 4.05ZM37.28 5.68L39.02 10.37L35.57 10.37ZM43.05 6.33L43.05 16.65L44.38 16.20L44.38 12.88C44.86 13.48 45.57 13.92 46.54 13.92C48.59 13.92 49.36 11.94 49.36 10.02C49.36 8.11 48.59 6.15 46.54 6.15C45.53 6.15 44.79 6.62 44.31 7.27L44.31 6.33ZM46.21 7.36C47.63 7.36 48.09 8.62 48.09 10.02C48.09 11.42 47.63 12.68 46.23 12.68C45.33 12.68 44.76 12.18 44.38 11.49L44.38 8.58C44.76 7.87 45.33 7.36 46.21 7.36ZM51.23 6.33L51.23 16.65L52.56 16.20L52.56 12.88C53.03 13.48 53.75 13.92 54.71 13.92C56.77 13.92 57.54 11.94 57.54 10.02C57.54 8.11 56.77 6.15 54.71 6.15C53.70 6.15 52.96 6.62 52.49 7.27L52.49 6.33ZM54.39 7.36C55.80 7.36 56.27 8.62 56.27 10.02C56.27 11.42 55.80 12.68 54.40 12.68C53.51 12.68 52.93 12.18 52.56 11.49L52.56 8.58C52.93 7.87 53.51 7.36 54.39 7.36Z"></path></g><defs data-v-423bf9ae=""><linearGradient data-v-423bf9ae="" gradientTransform="rotate(25)" id="b4c6f1cf-d3aa-4635-9fc7-c76117ecc626" x1="0%" y1="0%" x2="100%" y2="0%"><stop data-v-423bf9ae="" offset="0%" style="stop-color: rgb(0, 102, 120); stop-opacity: 1;"></stop><stop data-v-423bf9ae="" offset="100%" style="stop-color: rgb(79, 168, 255); stop-opacity: 1;"></stop></linearGradient></defs><g data-v-423bf9ae="" id="ddeff3c5-2d4c-4129-ad92-cf41dc5f25b8" transform="matrix(1.0730730692545574,0,0,1.0730730692545574,-2.6536821168701934,-0.9419155333268208)" stroke="none" fill="url(#b4c6f1cf-d3aa-4635-9fc7-c76117ecc626)"><path d="M65.454 3.129c-.026-.735-.647-1.442-1.385-1.417l-13.348.473c-.738.026-1.307.858-1.281 1.597l.321 9.046 16.017-.569-.324-9.13zM49.952 18.166l16.016-.566 2.452 69.408-16.017.566zM52.745 97.213c.026.73.636 1.096 1.375 1.074l13.348-.475c.738-.026 1.317-.517 1.292-1.252l-.149-4.216-16.016.563.15 4.306zM3 96.743c0 .735.597 1.336 1.335 1.336H17.69c.738 0 1.336-.601 1.336-1.336V39.314H3v57.429zM19.027 13.938c0-.738-.598-1.335-1.336-1.335H4.336c-.738 0-1.336.598-1.336 1.335v9.349h16.027v-9.349zM45.738 24.753c0-.738-.597-1.335-1.335-1.335H25.705c-.738 0-1.335.597-1.335 1.335v9.219h21.369v-9.219zM24.37 44.657v52.086c0 .735.597 1.336 1.335 1.336h18.698c.738 0 1.335-.601 1.335-1.336V44.657H24.37zM81.102 96.926a1.335 1.335 0 0 0 1.513 1.138l13.22-1.879c.73-.104 1.252-.673 1.153-1.408l-8.833-62.25-15.87 2.254 8.817 62.145zM86.09 17.979a1.33 1.33 0 0 0-1.508-1.132l-13.225 1.875c-.73.102-1.252.673-1.148 1.403l1.325 9.362 15.87-2.251-1.314-9.257z"></path></g><!----></svg>